<svg width="30" height="31" viewBox="0 0 30 31" fill="none" xmlns="http://www.w3.org/2000/svg">
<g clip-path="url(#clip0_261_4402)">
<path d="M18.8123 6.75C20.0332 6.98821 21.1553 7.58532 22.0349 8.46492C22.9145 9.34452 23.5116 10.4666 23.7498 11.6875L18.8123 6.75ZM18.8123 1.75C21.3489 2.0318 23.7143 3.16772 25.5201 4.97126C27.3259 6.7748 28.4648 9.13876 28.7498 11.675L18.8123 1.75ZM27.4998 21.65V25.4C27.5012 25.7481 27.4299 26.0927 27.2904 26.4117C27.151 26.7307 26.9464 27.017 26.6899 27.2523C26.4334 27.4877 26.1305 27.6669 25.8007 27.7784C25.4709 27.8899 25.1215 27.9313 24.7748 27.9C20.9283 27.4821 17.2335 26.1677 13.9873 24.0625C10.9671 22.1433 8.40646 19.5827 6.48729 16.5625C4.37477 13.3015 3.0601 9.58874 2.64979 5.725C2.61856 5.37933 2.65964 5.03095 2.77042 4.70203C2.8812 4.37311 3.05926 4.07086 3.29325 3.81453C3.52725 3.55819 3.81205 3.35339 4.12953 3.21315C4.44702 3.07292 4.79022 3.00033 5.13729 3H8.88729C9.49393 2.99403 10.082 3.20885 10.542 3.60442C11.002 3.99998 11.3024 4.54931 11.3873 5.15C11.5456 6.35008 11.8391 7.52841 12.2623 8.6625C12.4305 9.1099 12.4669 9.59614 12.3672 10.0636C12.2675 10.5311 12.0359 10.9601 11.6998 11.3L10.1123 12.8875C11.8917 16.0169 14.4829 18.6081 17.6123 20.3875L19.1998 18.8C19.5397 18.4639 19.9687 18.2323 20.4362 18.1326C20.9037 18.0329 21.3899 18.0693 21.8373 18.2375C22.9714 18.6607 24.1497 18.9542 25.3498 19.1125C25.957 19.1982 26.5115 19.504 26.908 19.9719C27.3044 20.4397 27.515 21.037 27.4998 21.65Z" stroke="#7A9CA5" stroke-width="2" stroke-linecap="round" stroke-linejoin="round"/>
</g>
<defs>
<clipPath id="clip0_261_4402">
<rect width="30" height="30" fill="white" transform="translate(0 0.5)"/>
</clipPath>
</defs>
</svg>
